<svg xmlns="http://www.w3.org/2000/svg" xmlns:xlink="http://www.w3.org/1999/xlink" width="653" height="439" xmlns:v="https://vecta.io/nano"><style><![CDATA[.B{fill:#fffffe}.C{fill:#8b90ba}.D{fill:#e98a8b}.E{fill:#e26262}.F{fill:#c8c8da}.G{fill:#3b4e90}.H{fill:#0f1026}.I{fill:#4f619e}.J{fill:#1e1f43}.K{fill:#f4b556}.L{fill:#fbfcfd}]]></style><g fill-rule="evenodd"><path d="M92.302 0C43.004 0 2.669 40.335 2.669 89.633s40.335 89.632 89.633 89.632c9.893 0 17.988 8.096 17.988 17.989s-8.095 17.988-17.988 17.988H45.401c-24.049 0-43.727 19.676-43.727 43.726s19.678 43.727 43.727 43.727c20.799 0 37.816 17.018 37.816 37.816 0 37.95 31.049 68.999 68.999 68.999h405.041c49.3 0 89.633-40.335 89.633-89.633s-40.334-89.633-89.633-89.633h-8.667c-9.893 0-17.988-8.094-17.988-17.988s8.095-17.988 17.988-17.988h58.36c24.05 0 43.728-19.678 43.728-43.728 0-24.021-19.632-43.681-43.644-43.726h-46.957c-20.797 0-37.815-17.017-37.815-37.816C522.262 31.049 491.213 0 453.263 0H92.302" class="F"/><g class="G"><path d="M465.874 46.342c-5.912 0-11.824 2.256-16.334 6.766s-6.766 10.423-6.765 16.334 2.255 11.823 6.765 16.333a23.03 23.03 0 0 0 32.667 0c4.51-4.51 6.766-10.422 6.766-16.333a23.03 23.03 0 0 0-6.766-16.334c-4.51-4.51-10.422-6.766-16.333-6.766zm-19.064 4.036c5.262-5.265 12.164-7.895 19.064-7.895s13.799 2.63 19.064 7.895a26.88 26.88 0 0 1 7.896 19.064c0 6.899-2.633 13.8-7.896 19.063s-12.165 7.897-19.064 7.897-13.8-2.632-19.064-7.897a26.87 26.87 0 0 1-7.897-19.063c0-6.9 2.632-13.8 7.897-19.064h0z"/><path d="M482.207 88.505a1.93 1.93 0 1 1 2.731-2.73l6.381 6.381c.753.754.753 1.977 0 2.73a1.93 1.93 0 0 1-2.731 0l-6.381-6.381"/><path d="M488.849 97.877a3.86 3.86 0 1 1 5.46-5.46l29.436 29.436a3.86 3.86 0 0 1 0 5.462c-1.506 1.507-3.953 1.507-5.46 0l-29.436-29.438"/></g><path d="M451.375 58.994a1.2 1.2 0 0 1-1.675.273 1.2 1.2 0 0 1-.273-1.674l1.008-1.285.056-.062 1.048-1.139c.47-.47 1.233-.47 1.703 0s.47 1.233 0 1.703l-.93.994-.053.066-.884 1.124zm1.867 22.98c.47.47.47 1.233 0 1.703s-1.233.47-1.703 0c-1.929-1.93-3.388-4.162-4.378-6.55-1.026-2.475-1.539-5.108-1.539-7.735 0-1.224.116-2.462.343-3.696.224-1.206.561-2.401 1.009-3.568a1.2 1.2 0 0 1 1.548-.69 1.2 1.2 0 0 1 .691 1.548 17.86 17.86 0 0 0-.887 3.143 17.93 17.93 0 0 0-.296 3.263 17.84 17.84 0 0 0 1.351 6.823c.865 2.088 2.152 4.05 3.861 5.759zm27.561-2.966c.358-.558 1.102-.721 1.661-.362a1.2 1.2 0 0 1 .361 1.66 19.89 19.89 0 0 1-1.265 1.753 20.35 20.35 0 0 1-1.451 1.618c-.47.47-1.232.47-1.702 0s-.471-1.233 0-1.703.896-.944 1.281-1.421c.401-.497.773-1.012 1.115-1.545zm-2.396-22.198c-.471-.47-.471-1.233 0-1.703s1.232-.47 1.702 0c1.929 1.929 3.39 4.161 4.379 6.55 1.022 2.468 1.533 5.102 1.533 7.735h.005c0 1.883-.262 3.768-.787 5.595-.183.639-.848 1.01-1.487.828s-1.01-.848-.829-1.487a17.84 17.84 0 0 0 .694-4.936h.005c0-2.32-.451-4.641-1.355-6.823-.864-2.087-2.151-4.05-3.86-5.759h0z" class="B"/><path d="M471.69 77.504c-.558.322-.747 1.034-.425 1.591s1.034.746 1.592.424c1.768-1.025 3.245-2.505 4.271-4.281.991-1.719 1.558-3.706 1.558-5.819 0-3.223-1.306-6.138-3.418-8.25a11.63 11.63 0 0 0-16.498 0c-2.113 2.112-3.418 5.027-3.418 8.25 0 .645.522 1.167 1.168 1.167s1.166-.522 1.166-1.167c0-2.577 1.046-4.91 2.734-6.599a9.3 9.3 0 0 1 15.932 6.599c0 1.703-.451 3.295-1.239 4.661-.818 1.416-2.002 2.6-3.423 3.424m105.094 207.339c-5.289-2.19-11.092-3.399-17.182-3.399s-11.894 1.209-17.183 3.399a45 45 0 0 0-14.582 9.758 45.01 45.01 0 0 0-9.759 14.582c-2.19 5.29-3.399 11.094-3.399 17.182a44.82 44.82 0 0 0 3.399 17.183c2.275 5.491 5.614 10.439 9.759 14.584s9.092 7.482 14.582 9.757c5.289 2.19 11.094 3.4 17.183 3.4s11.893-1.21 17.182-3.4a44.97 44.97 0 0 0 14.583-9.757c4.146-4.145 7.484-9.093 9.757-14.584 2.192-5.289 3.401-11.092 3.401-17.183s-1.209-11.892-3.401-17.182c-2.273-5.49-5.611-10.437-9.757-14.582a45 45 0 0 0-14.583-9.758zm-17.182-5.176c6.32 0 12.35 1.258 17.856 3.538 5.72 2.369 10.864 5.837 15.166 10.14a46.78 46.78 0 0 1 10.14 15.166c2.279 5.504 3.538 11.535 3.538 17.854s-1.259 12.352-3.538 17.857a46.78 46.78 0 0 1-10.14 15.166c-4.302 4.302-9.445 7.77-15.166 10.14-5.505 2.279-11.536 3.538-17.856 3.538s-12.352-1.259-17.856-3.538a46.79 46.79 0 0 1-25.305-25.306 46.54 46.54 0 0 1-3.538-17.857 46.53 46.53 0 0 1 3.538-17.854 46.79 46.79 0 0 1 10.138-15.166c4.303-4.303 9.446-7.77 15.167-10.14 5.504-2.28 11.536-3.538 17.856-3.538h0z" class="C"/><path d="M428.001 122.796l32.87-55.27c4.16-6.569 10.472-4.715 6.576 4.029-2.146 4.82-9.689 16.759-9.689 16.759 10.586 1.033 14.077 13.852 11.22 19.078-1.41 2.577-9.996 9.922-12.062 11.256s-10.882 12.665-10.882 12.665l-18.033-8.517" class="D"/><g class="E"><path d="M445.32 93.254l7.187-12.064 2.463.273c3.795.444 6.557-.781 8.615-2.738-2.774 4.757-5.827 9.589-5.827 9.589 1.659.162 3.145.613 4.457 1.281-2.452 1.277-7.003 2.73-14.506 3.609-.918.108-1.709.119-2.389.05"/><path d="M441.678 99.422l5.084-8.601c3.528-.873 7.67-1.791 11.647-2.425 10.076 1.484 13.367 13.879 10.569 18.996-.872 1.592-4.481 5.003-7.601 7.694-8.614-2.432-15.598-10.109-19.699-15.664"/></g><g class="D"><path d="M466.875 96.065c4.167 2.363 7.05 4.644 4.326 10.182s-8.657 5.07-8.555 2.979 4.985-9.59 4.985-9.59-6.362-4.194-.756-3.571"/><path d="M463.393 92.581c6.633-1.301 6.811 3.762 3.764 9.959s-7.708 6.706-9.502 3.966 5.378-10.13 5.378-10.13-5.915-4.492.36-3.795"/><path d="M463.659 97.25c-3.046 6.197-7.349 6.347-9.142 3.606s5.378-10.129 5.378-10.129-2.038-1.88-1.625-3.114c.991-2.955 7.611-3.158 7.866 2.358.082 1.779-.981 4.234-2.477 7.279"/><path d="M434.797 114.362c-4.302-11.294.179-27.429 5.02-27.07s20.348-1.165 20.885 3.049-16.045 6.812-16.045 6.812 11.294 13.266 4.302 17.03-14.341 3.944-14.162.179"/></g><path d="M303.023 193.585l65.139-4.802c2.822-.376 4.962-1.244 11.096-8.087s50.865-68.167 50.865-68.167c1.523-2.435 26.686 13.602 22.849 23.005-1.881 4.607-49.269 77.225-49.269 77.225s-9.213 16.36-24.256 22.755-50.022 23.693-50.022 23.693l-26.402-65.622" class="J"/><path d="M361.569 189.33c13.441 6.484 30.833 20.745 13.982 47.882l3.896-1.698c1.503-.64 2.948-1.38 4.332-2.192 11.189-23.248-.582-37.293-13.138-45.157-.849.349-1.633.506-2.479.618-.507.067-2.945.267-6.593.547zm-14.953 1.115l11.103-.822c13.883 7.5 29.291 22.271 15.938 48.437l-8.388 3.86c20.767-31.933-5.321-46.439-18.653-51.475h0z" class="G"/><path d="M304.244 194.336c53.897 9.35 54.886 71.717 46.893 125.296-1.726 26.54 1.333 67.164-1.597 78.469-.268 1.035-1.189 2.559-2.282 4.119l-62.554 2.016h-70.079c-1.093-1.559-2.012-3.084-2.281-4.121-2.931-11.303 3.138-69.739 1.415-96.279l-5.009-89.046 56.413-20.454h39.081" class="J"/><path d="M324.115 131.488l.884.15.009.002c5.373 1.125 9.455 5.84 9.564 11.563.125 6.652-5.167 12.149-11.818 12.275a12.05 12.05 0 0 1-12.274-11.817 12.02 12.02 0 0 1 4.47-9.598c-.305 3.556.26 7.959 4.8 8.4l-.133-6.947c-.052-2.812 2.57-4.106 4.498-4.028m-82.091 0l-.884.15-.008.002h.001c-5.374 1.125-9.455 5.84-9.565 11.563-.125 6.652 5.166 12.149 11.818 12.275s12.149-5.165 12.275-11.817a12.02 12.02 0 0 0-4.472-9.598c.306 3.556-.258 7.959-4.798 8.4l.131-6.947c.054-2.812-2.57-4.106-4.498-4.028" class="E"/><path d="M330.688 102.658l-3.935 35.926-8.197-33.851 12.132-2.075" class="H"/><path d="M304.244 193.498c2.535-.18 3.398-.444 5.416-.386 5.354 18.789-5.161 32.584-24.956 32.584-14.671 0-26.649-11.978-26.649-26.648v-2.135l7.108-2.577 39.081-.838" class="C"/><path d="M411.273 413.779H272.396c-5.248 0-9.542-4.293-9.542-9.542v-.001c0-5.249 4.294-9.543 9.542-9.543h138.877c5.247 0 9.542 4.294 9.542 9.543v.001c0 5.249-4.295 9.542-9.542 9.542" class="I"/><path d="M272.822 413.779h-62.549c-5.249 0-9.542-4.293-9.542-9.542v-.001c0-5.249 4.293-9.543 9.542-9.543h62.549c5.249 0 9.542 4.294 9.542 9.543v.001c0 5.249-4.293 9.542-9.542 9.542" class="G"/><path d="M284.704 153.66h0c-10.748 0-19.541 8.792-19.541 19.54v25.848c0 10.747 8.793 19.54 19.541 19.54s19.54-8.793 19.54-19.54V173.2c0-10.748-8.793-19.54-19.54-19.54" class="D"/><path d="M265.237 171.522l-.074 1.677v25.849a19.36 19.36 0 0 0 1.244 6.84l37.837-16.919v-14.521c-6.964-1.283-23.851-3.03-24.834-3.849-.632-.527-7.612.151-14.173.923" class="E"/><path d="M326.744 111.901l.009.653v37.519c0 22.687-18.565 41.249-41.253 41.249-22.682 0-41.247-18.562-41.247-41.249v-37.519c0-3.961.271-6.69 1.2-9.857 4.451-17.969 20.758-31.393 40.047-31.393 22.47 0 40.89 18.209 41.244 40.597" class="D"/><path d="M326.744 111.901l.006.4-25.146-10.217-10.742 6.277-13.887-3.846c-1.383 2.265-3.852 1.826-3.852 1.826l-14.594-5.271 1.809-21.14a41.46 41.46 0 0 1 6.754-4.26l43.861 4.487c9.443 7.444 15.588 18.905 15.791 31.744" class="E"/><path d="M280.473 152.171c-.233 5.891 4.356 10.855 10.245 11.086s10.856-4.355 11.087-10.246h-.018c.041-1.014-.755-1.876-1.769-1.915l-17.613-.692c-1.013-.041-1.876.755-1.915 1.767h-.017" class="H"/><path d="M284.12 160.632c1.77 1.549 4.064 2.524 6.598 2.625a10.62 10.62 0 0 0 5.702-1.387c-.733-2.222-3.062-3.955-5.944-4.176-2.748-.211-5.212 1.015-6.356 2.938" fill="#df4e60"/><path d="M300.252 151.123l-16.554-.653c-.335 1.821.44 3.704 1.656 4.156 1.479.547 13.47.707 14.356-.202.427-.44.541-1.905.542-3.301" class="B"/><path d="M268.163 142.995c2.995-.056 5.471 2.326 5.527 5.321a5.43 5.43 0 0 1-5.321 5.527 5.43 5.43 0 0 1-5.527-5.321 5.43 5.43 0 0 1 5.321-5.527m45.059-.886a5.43 5.43 0 0 1 5.528 5.32 5.43 5.43 0 0 1-5.323 5.528 5.43 5.43 0 0 1-5.527-5.321 5.43 5.43 0 0 1 5.322-5.527" class="E"/><path d="M315.5 124.325c.721.361 1.602.067 1.963-.654s.068-1.603-.651-1.962c-3.883-2.002-9.073-2.235-12.881.051a1.47 1.47 0 0 0-.503 2.008 1.47 1.47 0 0 0 2.009.505c3.083-1.849 6.942-1.439 10.063.052m-8.899 12.034c0-1.016.399-1.983 1.118-2.701a3.81 3.81 0 0 1 5.399 0c.717.718 1.119 1.685 1.119 2.701a1.47 1.47 0 0 0 1.468 1.468 1.47 1.47 0 0 0 1.468-1.468c0-1.797-.709-3.507-1.979-4.778a6.73 6.73 0 0 0-4.776-1.977 6.74 6.74 0 0 0-6.754 6.755 1.47 1.47 0 0 0 1.469 1.468 1.47 1.47 0 0 0 1.468-1.468" class="H"/><path d="M296.649 139.658c1.011 1.391 2.774 3.925 2.919 4.865.204 1.325-2.752 2.09-4.791 1.529-1.45-.398-1.226-3.64-.801-5.674.468-2.245 1.079-2.914 2.673-.72" fill="#efaba9"/><path d="M277.093 124.325c.721.361 1.602.067 1.962-.654s.068-1.603-.65-1.962c-3.883-2.002-9.072-2.235-12.881.051a1.47 1.47 0 0 0-.504 2.008 1.47 1.47 0 0 0 2.01.505c3.082-1.849 6.942-1.439 10.063.052m-8.898 12.034c0-1.016.4-1.983 1.117-2.701a3.81 3.81 0 0 1 2.7-1.117c1.016 0 1.982.399 2.699 1.117s1.119 1.685 1.119 2.701a1.47 1.47 0 0 0 1.468 1.468 1.47 1.47 0 0 0 1.468-1.468c0-1.797-.709-3.507-1.978-4.778a6.74 6.74 0 0 0-11.53 4.778 1.47 1.47 0 0 0 1.468 1.468 1.47 1.47 0 0 0 1.469-1.468m-23.942 8.205s9.166-10.411 4.776-24.325c0 0 16.013-8.716 16.013-21.892 0 0 1.926 4.562 5.067 5.676s4.764-3.141 3.243-5.067c0 0 11.657 8.513 21.284 10.439s12.467-7.804 8.514-11.25c0 0 15.508 10.845 25.44 8.209s15.811-41.351-18.244-49.865-55.539.407-62.837 5.271-11.958 18.04-6.891 26.959c0 0-6.081 5.878-7.703 14.392s4.769 29.832 4.769 29.832 6.569.675 6.569 11.621" class="H"/><path d="M331.429 70.916l-.024-.016c-41.635 14.178-62.833-2.189-72.264-14.455-2.987.953-5.52 2.003-7.592 3.021 22.763 37.321 60.015 36.528 84.713 30.697.286-6.146-1.019-13.123-4.833-19.247" class="J"/><path d="M258.274 264.051c1.497 2.094 2.969 4.122 4.739 5.732s17.681 7.284 17.681 7.284-1.143 3.637-4.68 3.637h-9.151c-3.017 0-5.305 9.776-16.225 14.144-8.296 3.319-5.008-19.595-2.948-30.797h10.584" class="E"/><path d="M292.201 209.105h-26.274a3.8 3.8 0 0 0-3.787 3.788v60.906a3.8 3.8 0 0 0 3.787 3.787h26.274a3.8 3.8 0 0 0 3.788-3.787v-60.906a3.8 3.8 0 0 0-3.788-3.788" class="B"/><path d="M262.14 217.88h33.849v-1.316H262.14zm0 52.247h33.849v-1.315H262.14z" class="F"/><path d="M261.132 228.583s1.361 1.124 1.514 3.825-1.676 5.437-2.393 7.228l-2.64 9.026-1.479 12.992c-.099.199.937 1.557 2.33 3.159l-10.535 1.004.613-6.001-1.152-6.381s3.482-9.723 4.863-12.779 8.198-12.638 8.879-12.073" class="E"/><path d="M279.065 232.435a5.67 5.67 0 0 0 5.658-5.659 5.67 5.67 0 0 0-5.658-5.659c-3.117 0-5.66 2.542-5.66 5.659s2.543 5.659 5.66 5.659" class="F"/><path d="M239.327 319.013s7.281-13.313 9.257-16.12 4.68-7.801 4.68-14.664-1.144-10.298 1.768-12.481 6.969-3.329 6.969-3.329l7.228.26c1.195.053 6.655 1.56 7.955 1.508s2.548-1.143 2.757-1.976.207-1.351-1.716-2.08-7.02-2.496-8.789-2.756-7.749-.624-9.1-.624-4.992.884-4.992.884l4.732-2.235c.884-.417 7.748-.937 9.672-.625s7.852 3.588 11.857 1.248c0 0 .884-.703-.182-1.821s-11.7-5.849-13.052-6.37-2.964-.365-5.772-.157-5.616.312-6.917 1.093-3.535 1.975-3.535 1.975 3.899-7.383 4.419-7.904 8.477-3.9 8.996-4.057 5.981-1.04 7.489-2.235 1.923-3.121 1.923-3.797-.208-1.143-3.068-.884l-8.477.831c-2.288.26-7.591 2.705-10.243 3.745s-4.888 5.147-7.801 10.347-6.969 16.328-8.84 20.592-.624 16.848-8.009 26.624-9.359 11.544-9.359 11.544l20.15 3.464" class="D"/><path d="M208.75 214.79s-13.252 4.954-19.645 28.273-13.163 104.93-14.667 122.982 25.011 33.66 39.49 16.173 33.851-71.648 33.851-71.648-5.925-8.839-17.019-12.317l-7.051 8.556s27.08-96.845-14.959-92.019" class="J"/><path d="M181.684 290.626c21.203-2.849 36.488 1.886 44.633 5.581l-1.666 7.01c-6.888-3.398-21.86-8.704-43.787-5.313l.82-7.278zm1.82-14.911l-.913 7.251c24.937-3.396 40.531 4.467 45.025 7.174l1.391-7.315c-6.966-3.619-22.666-9.758-45.503-7.11h0z" class="G"/><path d="M266.154 214.79c1.035 0 1.88-.845 1.88-1.88s-.845-1.88-1.88-1.88-1.881.844-1.881 1.88.845 1.88 1.881 1.88" class="F"/><path d="M270.549 214.057a1.15 1.15 0 0 0 1.147-1.147 1.15 1.15 0 0 0-1.147-1.146 1.15 1.15 0 0 0-1.146 1.146 1.15 1.15 0 0 0 1.146 1.147m-4.395.24a1.39 1.39 0 0 0 1.387-1.387 1.39 1.39 0 0 0-1.387-1.386 1.39 1.39 0 0 0-1.388 1.386 1.39 1.39 0 0 0 1.388 1.387" class="C"/><path d="M266.154 213.533c.342 0 .622-.28.622-.623s-.28-.622-.622-.622-.624.279-.624.622.281.623.624.623" class="F"/><path d="M266.777 212.804c.342 0 .622-.28.622-.623s-.28-.622-.622-.622-.623.28-.623.622.28.623.623.623" class="B"/><path d="M270.549 213.487a.58.58 0 0 0 .576-.577.58.58 0 0 0-.576-.576.58.58 0 0 0-.576.576.58.58 0 0 0 .576.577" class="F"/><g fill="#12152d"><path d="M211.246 385.864a.89.89 0 0 1-.583-1.558 22.73 22.73 0 0 0 2.581-2.654c13.531-16.343 31.659-65.756 33.539-70.944-1.211-1.626-6.662-8.38-15.722-11.424l-6.666 8.089c-.266.323-.724.419-1.096.223a.89.89 0 0 1-.446-1.026c.086-.304 8.497-30.689 8.551-56.18 0-.49.397-.887.887-.887a.89.89 0 0 1 .889.891c-.043 20.307-5.329 43.652-7.599 52.746l4.493-5.453a.89.89 0 0 1 .952-.283c11.263 3.533 17.241 12.299 17.491 12.671.157.235.193.528.097.793-.792 2.218-19.588 54.508-34.001 71.917-.871 1.05-1.807 2.014-2.784 2.863a.89.89 0 0 1-.583.216"/><path d="M195.688 341.702c-.198 0-.399-.066-.564-.202a.89.89 0 0 1-.12-1.251l31.235-37.907a.89.89 0 0 1 1.251-.12.89.89 0 0 1 .12 1.25l-31.235 37.907a.89.89 0 0 1-.687.323"/><path d="M195.875 334.206a.89.89 0 0 1-.357-1.703l8.859-3.435a.89.89 0 0 1 1.137.534c.166.461-.071.97-.532 1.136l-8.752 3.393a.88.88 0 0 1-.355.075m32.903-49.21a.88.88 0 0 1-.305-.055c-.461-.167-.698-.678-.529-1.138l6.757-18.816a.89.89 0 0 1 1.106-.595c.471.14.736.636.596 1.105-.566 1.884-6.537 18.221-6.79 18.915a.89.89 0 0 1-.835.584m126.371-11.282a.89.89 0 0 1-.888-.861c-.723-24.395-5.945-43.464-15.522-56.679a.89.89 0 0 1 .198-1.242c.399-.289.952-.199 1.241.199 9.791 13.508 15.126 32.912 15.859 57.669a.89.89 0 0 1-.862.914h-.026m13.012-84.043c-.458 0-.847-.353-.883-.817a.89.89 0 0 1 .813-.957c.12-.009 12.049-.959 18.305-1.052a.89.89 0 0 1 .901.875.89.89 0 0 1-.876.901c-6.197.092-18.069 1.037-18.187 1.047-.025.003-.048.003-.073.003"/></g><path d="M461.998 269.875H302.946c-2.292 0-4.38 1.876-4.641 4.166l-11.312 99.496c-.261 2.291 1.402 4.166 3.693 4.166h159.053c2.29 0 4.378-1.875 4.639-4.166l11.313-99.496c.26-2.292-1.401-4.166-3.693-4.166" class="F"/><path d="M475.542 269.875H309.196c-2.291 0-4.379 1.876-4.64 4.166l-11.312 99.496c-.26 2.291 1.401 4.166 3.693 4.166h166.345c2.291 0 4.379-1.875 4.639-4.166l11.314-99.496c.259-2.292-1.402-4.166-3.693-4.166" class="B"/><path d="M398.775 331.108h-31.927c-2.069 0-3.339 1.691-2.823 3.76l16.364 65.608c.516 2.067 2.63 3.76 4.699 3.76h16.573c2.069 0 3.694-1.693 3.612-3.76l-2.59-65.608c-.08-2.069-1.84-3.76-3.908-3.76" class="C"/><path d="M403.593 331.108h-31.927c-2.069 0-3.339 1.691-2.823 3.76l16.365 65.608c.516 2.067 2.63 3.76 4.698 3.76h16.574c2.069 0 3.693-1.693 3.611-3.76l-2.589-65.608a3.96 3.96 0 0 0-3.909-3.76" fill="#e1e4eb"/><path d="M431.892 410.376h-84.623a6.16 6.16 0 0 1-6.14-6.14 6.16 6.16 0 0 1 6.14-6.14h84.623a6.16 6.16 0 0 1 6.141 6.14 6.16 6.16 0 0 1-6.141 6.14" class="B"/><path d="M356.362 410.376h-32.254a6.16 6.16 0 0 1-6.14-6.14 6.16 6.16 0 0 1 6.14-6.14h32.254a6.16 6.16 0 0 1 6.14 6.14 6.16 6.16 0 0 1-6.14 6.14" class="C"/><path d="M11.556 438.432c2.786 0 5.066-2.279 5.066-5.066v-.422c0-2.787-2.28-5.067-5.066-5.067s-5.066 2.28-5.066 5.067v.422c0 2.787 2.28 5.066 5.066 5.066zm-3.957-34.196h637.154c4.178 0 7.599 3.42 7.599 7.598v.002c0 4.177-3.419 7.599-7.599 7.599h-25.639c-2.322 0-4.221 1.9-4.221 4.221s1.899 4.221 4.221 4.221h9.381c2.901 0 5.278 2.375 5.278 5.277v.001c0 2.902-2.376 5.277-5.278 5.277H24.697c-2.902 0-5.277-2.374-5.277-5.277v-.001c0-2.902 2.375-5.277 5.277-5.277h7.388c2.322 0 4.221-1.899 4.221-4.221s-1.899-4.221-4.221-4.221H7.599c-4.179 0-7.599-3.421-7.599-7.599v-.002c0-4.178 3.422-7.598 7.599-7.598h0z" class="H"/><path d="M556.928 276.671a45.61 45.61 0 0 1 45.755 45.755c0 12.636-5.121 24.075-13.401 32.355a45.61 45.61 0 0 1-32.354 13.401c-12.636 0-24.075-5.121-32.355-13.401s-13.401-19.719-13.401-32.355a45.61 45.61 0 0 1 13.401-32.354c8.28-8.28 19.719-13.401 32.355-13.401" class="G"/><path d="M556.928 357.408c19.268 0 34.982-15.714 34.982-34.982s-15.714-34.982-34.982-34.982-34.982 15.714-34.982 34.982 15.714 34.982 34.982 34.982" class="B"/><path d="M556.927 289.692h.002a.76.76 0 0 1 .76.759v1.854a.76.76 0 0 1-.76.759h-.002a.76.76 0 0 1-.76-.759v-1.854a.76.76 0 0 1 .76-.759m0 62.097h.002a.76.76 0 0 1 .76.759v1.855c0 .418-.342.76-.76.76h-.002a.76.76 0 0 1-.76-.76v-1.855a.76.76 0 0 1 .76-.759m16.368-57.711l.002.001a.76.76 0 0 1 .277 1.037l-.927 1.604a.76.76 0 0 1-1.037.279l-.001-.002a.76.76 0 0 1-.279-1.038l.927-1.603a.76.76 0 0 1 1.038-.278m-31.05 53.778l.003.001a.76.76 0 0 1 .278 1.037l-.927 1.604a.76.76 0 0 1-1.037.28l-.002-.002a.76.76 0 0 1-.279-1.038l.927-1.605a.76.76 0 0 1 1.037-.277m43.032-41.798l.001.002a.76.76 0 0 1-.279 1.038l-1.604.927a.76.76 0 0 1-1.038-.278l-.002-.003c-.208-.362-.083-.827.278-1.037l1.606-.927a.76.76 0 0 1 1.038.278m-53.778 31.05v.002a.76.76 0 0 1-.277 1.037l-1.605.926c-.362.21-.83.083-1.038-.277l-.002-.003a.76.76 0 0 1 .279-1.037l1.605-.928c.362-.208.828-.083 1.038.28m58.164-14.682v.002a.76.76 0 0 1-.759.76h-1.854a.76.76 0 0 1-.76-.76v-.002a.76.76 0 0 1 .76-.759h1.854a.76.76 0 0 1 .759.759m-62.097 0v.002a.76.76 0 0 1-.761.76h-1.853a.76.76 0 0 1-.759-.76v-.002a.76.76 0 0 1 .759-.759h1.853a.76.76 0 0 1 .761.759m57.712 16.367l-.001.003c-.21.36-.675.485-1.038.277l-1.606-.926c-.361-.209-.486-.676-.278-1.037l.002-.002c.209-.363.675-.488 1.038-.28l1.604.928a.76.76 0 0 1 .279 1.037m-53.779-31.049v.003c-.21.361-.676.488-1.038.278l-1.605-.927a.76.76 0 0 1-.279-1.038l.002-.002a.76.76 0 0 1 1.038-.278l1.604.926a.76.76 0 0 1 .278 1.038m41.798 43.032l-.003.002c-.362.208-.828.083-1.038-.28l-.927-1.604a.76.76 0 0 1 .279-1.037l.002-.001a.76.76 0 0 1 1.037.277l.927 1.605c.21.363.083.828-.277 1.038m-31.05-53.779l-.003.002a.76.76 0 0 1-1.037-.279l-.927-1.606a.76.76 0 0 1 .279-1.036l.002-.002a.76.76 0 0 1 1.037.279l.928 1.604c.208.362.083.828-.279 1.038m15.758 25.429c0 .597-.481 1.078-1.077 1.078s-1.078-.481-1.078-1.078v-25.241a1.08 1.08 0 0 1 1.078-1.077c.596 0 1.077.482 1.077 1.077v25.241" class="G"/><path d="M557.713 321.692c.406.433.383 1.114-.049 1.52s-1.115.383-1.52-.051l-12.469-13.371c-.406-.433-.383-1.114.051-1.52s1.114-.383 1.52.05l12.467 13.372" fill="#df4e60"/><path d="M139.853 43.069h67.371c5.622 0 10.222 4.599 10.222 10.22v72.1a1.12 1.12 0 0 1-.706 1.054c-.434.181-.909.087-1.243-.248l-17.417-17.416h-58.227c-5.622 0-10.222-4.599-10.222-10.221V53.289c0-5.622 4.601-10.22 10.222-10.22" class="B"/><path d="M202.711 46.694h-67.372c-3.056 0-5.834 1.25-7.847 3.263s-3.262 4.79-3.262 7.846v45.268c0 3.057 1.248 5.834 3.261 7.847s4.792 3.263 7.848 3.263h57.86l17.157 17.157c.283.28.626.466.992.548l.046.011a2.03 2.03 0 0 0 2.089-.866c.216-.33.338-.718.338-1.129V57.803c0-3.056-1.25-5.834-3.263-7.846s-4.792-3.263-7.847-3.263zm-67.372 1.776h67.372c2.564 0 4.899 1.051 6.59 2.743s2.743 4.025 2.743 6.59v72.099c0 .06-.013.108-.036.144-.03.038-.07.071-.121.092s-.101.026-.146.017l-.016-.003c-.041-.01-.078-.034-.113-.068l-17.416-17.42a.89.89 0 0 0-.628-.26h-58.229c-2.565 0-4.898-1.05-6.591-2.742s-2.742-4.026-2.742-6.591V57.803a9.31 9.31 0 0 1 2.742-6.59c1.693-1.692 4.026-2.743 6.591-2.743h0z" class="C"/><path d="M191.133 62.32h0c-4.532-4.531-11.946-4.531-16.476 0l-1.119 1.118-1.118-1.118c-4.53-4.531-11.945-4.531-16.475 0s-4.532 11.944 0 16.476l1.119 1.117 16.474 16.475 16.475-16.475 1.12-1.117c4.531-4.532 4.531-11.946 0-16.476" class="D"/><path d="M611.803 131.42a19.48 19.48 0 0 1 4.349 1.85 19.72 19.72 0 0 1 3.814 2.875.68.68 0 0 0 .813.098l5.154-2.975.028-.017a1.28 1.28 0 0 1 .941-.107c.317.084.601.288.776.592l.021.036 3.627 6.281c.175.304.209.653.123.971s-.288.601-.592.776l-.034.022-5.114 2.952c-.268.154-.39.464-.321.752h-.001c.188.76.333 1.543.431 2.343.094.781.143 1.578.143 2.39s-.049 1.61-.143 2.39a19.83 19.83 0 0 1-.431 2.344.68.68 0 0 0 .36.773l5.112 2.951h-.002c.304.175.508.46.592.778a1.27 1.27 0 0 1-.123.97l-3.647 6.318-.001-.002c-.175.304-.459.509-.776.593s-.666.051-.969-.123l-.037-.021-5.119-2.956c-.269-.154-.598-.105-.811.098-1.145 1.106-2.427 2.074-3.814 2.876-1.362.787-2.83 1.415-4.377 1.86-.3.086-.495.358-.496.655v5.946c0 .35-.144.67-.375.901s-.551.375-.901.375h-7.297c-.349 0-.668-.144-.9-.375s-.375-.551-.375-.901v-5.946c0-.322-.225-.593-.525-.664a19.47 19.47 0 0 1-4.347-1.851 19.66 19.66 0 0 1-3.815-2.876.68.68 0 0 0-.845-.077l-5.121 2.957c-.303.173-.651.208-.969.122a1.27 1.27 0 0 1-.777-.593l-.021-.035-3.628-6.283.001-.001c-.175-.303-.209-.65-.125-.967s.289-.603.591-.778l5.15-2.972a.68.68 0 0 0 .322-.752h.001c-.188-.76-.333-1.543-.431-2.344a19.78 19.78 0 0 1 0-4.78c.098-.8.243-1.583.431-2.343.078-.316-.08-.636-.36-.774l-5.113-2.952c-.302-.173-.505-.459-.591-.776s-.05-.666.125-.968l.02-.038 3.627-6.282h.001c.176-.304.459-.508.777-.592s.666-.051.969.123l-.002.001 5.156 2.975a.68.68 0 0 0 .827-.111c1.143-1.101 2.418-2.063 3.8-2.862a19.51 19.51 0 0 1 4.376-1.859c.3-.086.496-.359.496-.656v-5.946a1.27 1.27 0 0 1 1.275-1.276h7.297a1.27 1.27 0 0 1 1.276 1.276v5.946c0 .323.224.592.524.665zm2.396 10.995c-2.007-2.008-4.78-3.249-7.844-3.249s-5.836 1.241-7.844 3.249-3.25 4.78-3.25 7.844a11.06 11.06 0 0 0 3.25 7.845c2.008 2.008 4.78 3.249 7.844 3.249s5.837-1.241 7.844-3.249a11.06 11.06 0 0 0 3.249-7.845c0-3.064-1.241-5.836-3.249-7.844z" class="C"/><path d="M84.91 292.185h57.784c2.632 0 4.786-2.154 4.786-4.785v-43.87c0-2.632-2.154-4.786-4.786-4.786h-2.349v-2.228a1.32 1.32 0 0 0-1.317-1.318h-17.457a1.32 1.32 0 0 0-1.318 1.318v2.228H84.91c-2.632 0-4.786 2.154-4.786 4.786v43.87c0 2.631 2.154 4.785 4.786 4.785" class="I"/><path d="M125.235 292.185H88.721a3.91 3.91 0 0 1-3.899-3.899v-37.269a3.91 3.91 0 0 1 3.899-3.9h36.514a3.91 3.91 0 0 1 3.899 3.9v37.269a3.91 3.91 0 0 1-3.899 3.899" class="B"/><path d="M90.671 292.185h53.353c2.632 0 5.745-2.154 6.917-4.785l16.818-37.754c1.172-2.633-.021-4.786-2.653-4.786h-2.805l1.055-2.372c.429-.959-.007-1.746-.968-1.746h-19.473c-.962 0-2.097.787-2.526 1.746l-1.055 2.372h-27.581c-2.632 0-5.745 2.153-6.918 4.786L88.017 287.4c-1.173 2.631.022 4.785 2.654 4.785" class="C"/><path d="M319.417 14.515H426.75c2.993 0 5.444 2.45 5.444 5.443v38.393c0 .251-.144.466-.375.561s-.486.047-.663-.131l-9.275-9.275H319.417a5.46 5.46 0 0 1-5.443-5.442V19.958c0-2.993 2.45-5.443 5.443-5.443" class="B"/><path d="M335.38 44.883c6.796 0 12.338-5.542 12.338-12.338s-5.542-12.338-12.338-12.338-12.338 5.543-12.338 12.338 5.543 12.338 12.338 12.338" class="K"/><path d="M335.38 30.393c1.857 0 3.37-1.513 3.37-3.369a3.38 3.38 0 0 0-3.37-3.371 3.38 3.38 0 0 0-3.37 3.371c0 1.856 1.514 3.369 3.37 3.369m0 1.069h0c2.629 0 4.779 2.15 4.779 4.779v4.662c0 .294-.241.535-.535.535h-8.488c-.294 0-.535-.241-.535-.535v-4.662c0-2.629 2.15-4.779 4.779-4.779" class="B"/><path d="M366.039 31.42h24.524a1.13 1.13 0 0 1 1.125 1.125v.001a1.13 1.13 0 0 1-1.125 1.124h-24.524a1.13 1.13 0 0 1-1.125-1.124v-.001a1.13 1.13 0 0 1 1.125-1.125m-7.145 0h-3.29a1.13 1.13 0 0 0-1.125 1.125v.001a1.13 1.13 0 0 0 1.125 1.124h3.29a1.13 1.13 0 0 0 1.125-1.124v-.001a1.13 1.13 0 0 0-1.125-1.125m-3.29-6.912h34.959c.62 0 1.125.505 1.125 1.125a1.13 1.13 0 0 1-1.125 1.125h-34.959a1.13 1.13 0 0 1-1.125-1.125 1.13 1.13 0 0 1 1.125-1.125m0 13.825h34.959a1.13 1.13 0 0 1 1.125 1.125 1.13 1.13 0 0 1-1.125 1.126h-34.959a1.13 1.13 0 0 1-1.125-1.126 1.13 1.13 0 0 1 1.125-1.125" class="C"/><path d="M411.296 44.883c6.796 0 12.338-5.542 12.338-12.338s-5.542-12.338-12.338-12.338-12.338 5.543-12.338 12.338 5.542 12.338 12.338 12.338" class="D"/><path d="M413.152 26.127c.524.151 1.02.364 1.481.629.473.275.909.604 1.3.981a.23.23 0 0 0 .277.033l1.756-1.014.01-.005a.43.43 0 0 1 .584.165l.007.012 1.237 2.14a.44.44 0 0 1 .041.331c-.028.109-.098.205-.202.264l-.011.007-1.742 1.007a.23.23 0 0 0-.11.256c.065.258.114.525.147.798.031.265.049.537.049.814s-.018.548-.049.815c-.033.272-.084.539-.147.798-.027.108.027.216.123.264l1.74 1.005a.43.43 0 0 1 .202.265c.029.109.018.227-.041.33l-1.243 2.152h-.001c-.059.104-.155.174-.265.202a.44.44 0 0 1-.329-.041l-.014-.008-1.743-1.007c-.092-.052-.203-.035-.276.034-.391.376-.827.706-1.3.979-.464.268-.964.483-1.491.634-.103.029-.169.122-.169.223v2.026c0 .119-.049.228-.127.307s-.189.128-.308.128h-2.486a.43.43 0 0 1-.435-.435V39.19c0-.11-.076-.202-.177-.226-.524-.151-1.021-.364-1.482-.631-.473-.273-.909-.603-1.3-.979a.23.23 0 0 0-.288-.027l-1.744 1.008a.44.44 0 0 1-.33.041.43.43 0 0 1-.265-.202l-.007-.012-1.237-2.14h.001c-.059-.103-.072-.221-.043-.33s.1-.205.202-.265l1.755-1.013c.09-.052.133-.158.109-.256-.064-.259-.113-.526-.146-.798-.033-.267-.049-.539-.049-.815a6.59 6.59 0 0 1 .049-.814c.033-.273.082-.54.146-.798.027-.108-.027-.217-.122-.264l-1.742-1.006c-.102-.059-.172-.155-.202-.264s-.016-.227.043-.33l.007-.013 1.235-2.14h.001c.06-.103.157-.173.265-.202s.226-.018.329.042l1.757 1.014a.23.23 0 0 0 .281-.038 6.83 6.83 0 0 1 1.295-.976c.465-.267.964-.48 1.491-.632a.23.23 0 0 0 .168-.223v-2.026a.43.43 0 0 1 .435-.435h2.486c.119 0 .229.049.308.128s.127.188.127.307v2.026c0 .109.076.202.179.226zm.817 3.745c-.685-.683-1.63-1.106-2.673-1.106a3.77 3.77 0 0 0-3.78 3.779c0 1.044.423 1.989 1.107 2.672s1.629 1.107 2.673 1.107 1.988-.422 2.673-1.107 1.106-1.628 1.106-2.672-.423-1.988-1.106-2.673z" class="B"/><path d="M108.389 401.861h75.086v-6.886h-75.086z" class="L"/><path d="M117.639 395.576a1.49 1.49 0 0 0 1.488-1.487 1.49 1.49 0 0 0-1.488-1.489H64.596c-1.597 0-3.05.655-4.105 1.708l-.005.006c-1.052 1.052-1.707 2.507-1.707 4.104a5.8 5.8 0 0 0 1.707 4.105c1.054 1.059 2.509 1.713 4.11 1.713h53.043a1.49 1.49 0 0 0 1.488-1.488 1.49 1.49 0 0 0-1.488-1.487h-2.43a9.52 9.52 0 0 1-1.169-1.016c-.683-.711-1.173-1.525-1.093-2.347.09-.946.696-1.724 1.401-2.322h3.291" class="G"/><path d="M183.475 395.576a1.49 1.49 0 0 0 1.487-1.487 1.49 1.49 0 0 0-1.487-1.489H116.95c-1.598 0-3.051.655-4.105 1.708l-.006.006c-1.052 1.052-1.706 2.507-1.706 4.104a5.8 5.8 0 0 0 1.706 4.105c1.054 1.059 2.51 1.713 4.111 1.713h66.525a1.49 1.49 0 0 0 1.487-1.488 1.49 1.49 0 0 0-1.487-1.487H116.95a2.83 2.83 0 0 1-2.006-.837 2.82 2.82 0 0 1-.836-2.006c0-.781.319-1.493.833-2.01a2.85 2.85 0 0 1 2.009-.832h66.525" class="I"/><path d="M66.926 390.165h62.953v-8.353H66.926z" class="L"/><path d="M118.657 382.54c-.997 0-1.806-.807-1.806-1.804s.809-1.806 1.806-1.806h48.884a7.04 7.04 0 0 1 4.979 2.071l.007.008c1.277 1.277 2.07 3.042 2.07 4.978s-.793 3.703-2.07 4.981c-1.278 1.284-3.043 2.078-4.986 2.078h-48.884c-.997 0-1.806-.809-1.806-1.805s.809-1.804 1.806-1.804h2.947c.494-.367.987-.782 1.419-1.232.83-.863 1.424-1.851 1.327-2.849-.111-1.146-.846-2.09-1.701-2.816h-3.992" class="E"/><path d="M66.926 382.54c-.996 0-1.806-.807-1.806-1.804a1.81 1.81 0 0 1 1.806-1.806h52.567a7.04 7.04 0 0 1 4.979 2.071l.007.008a7.03 7.03 0 0 1 2.072 4.978c0 1.939-.794 3.703-2.072 4.981a7.02 7.02 0 0 1-4.986 2.078H66.926c-.996 0-1.806-.809-1.806-1.805s.81-1.804 1.806-1.804h52.567c.945 0 1.808-.39 2.433-1.016a3.42 3.42 0 0 0 1.015-2.434c0-.947-.389-1.81-1.012-2.437a3.45 3.45 0 0 0-2.436-1.01H66.926" fill="#c24848"/><path d="M113.737 375.981h40.852v-8.548h-40.852z" class="L"/><path d="M125.22 368.178a1.85 1.85 0 0 0 1.848-1.847 1.85 1.85 0 0 0-1.848-1.846H95.104c-1.983 0-3.788.813-5.096 2.119l-.006.008a7.19 7.19 0 0 0-2.12 5.094c0 1.984.812 3.788 2.12 5.096 1.306 1.314 3.113 2.127 5.102 2.127h30.116a1.85 1.85 0 0 0 1.848-1.847 1.85 1.85 0 0 0-1.848-1.847h-3.015c-.506-.374-1.01-.799-1.452-1.26-.85-.882-1.457-1.894-1.358-2.916.113-1.172.864-2.139 1.739-2.881h4.086" class="H"/><path d="M154.589 368.178c1.02 0 1.846-.827 1.846-1.847s-.826-1.846-1.846-1.846h-30.224a7.2 7.2 0 0 0-5.095 2.119l-.007.008a7.19 7.19 0 0 0-2.121 5.094c0 1.984.813 3.788 2.121 5.096 1.308 1.314 3.114 2.127 5.102 2.127h30.224c1.02 0 1.846-.827 1.846-1.847s-.826-1.847-1.846-1.847h-30.224c-.968 0-1.851-.398-2.49-1.039a3.5 3.5 0 0 1-1.038-2.49c0-.969.397-1.853 1.033-2.493.642-.638 1.525-1.035 2.495-1.035h30.224" fill="#272854"/><path d="M472.592 398.14h50.878c1.676 0 3.047 1.371 3.047 3.049a3.06 3.06 0 0 1-3.047 3.047h-50.878a3.06 3.06 0 0 1-3.049-3.047 3.06 3.06 0 0 1 3.049-3.049" class="D"/><path d="M474.3 398.14h47.461a1.73 1.73 0 0 0 1.722-1.722 1.73 1.73 0 0 0-1.722-1.721H474.3a1.73 1.73 0 0 0-1.722 1.721 1.73 1.73 0 0 0 1.722 1.722" class="G"/><path d="M474.399 388.939h47.262a2.89 2.89 0 0 1 2.88 2.879 2.89 2.89 0 0 1-2.88 2.879h-47.262a2.89 2.89 0 0 1-2.879-2.879 2.89 2.89 0 0 1 2.879-2.879" class="E"/><g class="K"><path d="M476.184 390.62l3.674-3.673c.539-.54 1.419-.54 1.959 0l3.672 3.673c.541.54.541 1.42 0 1.959l-3.672 3.674c-.54.54-1.42.54-1.959 0l-3.674-3.674c-.54-.539-.54-1.419 0-1.959"/><path d="M484.784 390.62l3.674-3.673c.539-.54 1.419-.54 1.958 0l3.674 3.673c.54.54.54 1.42 0 1.959l-3.674 3.674c-.539.54-1.419.54-1.958 0l-3.674-3.674c-.54-.539-.54-1.419 0-1.959"/><path d="M493.385 390.62l3.674-3.673c.539-.54 1.419-.54 1.958 0l3.674 3.673a1.39 1.39 0 0 1 0 1.959l-3.674 3.674c-.539.54-1.419.54-1.958 0l-3.674-3.674c-.54-.539-.54-1.419 0-1.959"/><path d="M501.984 390.62l3.674-3.673c.54-.54 1.42-.54 1.959 0l3.674 3.673a1.39 1.39 0 0 1 0 1.959l-3.674 3.674c-.539.54-1.419.54-1.959 0l-3.674-3.674a1.39 1.39 0 0 1 0-1.959"/><path d="M510.584 390.62l3.675-3.673c.538-.54 1.419-.54 1.958 0l3.675 3.673a1.39 1.39 0 0 1 0 1.959l-3.675 3.674c-.539.54-1.42.54-1.958 0l-3.675-3.674a1.39 1.39 0 0 1 0-1.959"/></g><path d="M470.392 388.939h55.143a1.46 1.46 0 0 1 1.456 1.455 1.46 1.46 0 0 1-1.456 1.456h-55.143a1.46 1.46 0 0 1-1.456-1.456 1.46 1.46 0 0 1 1.456-1.455" class="I"/><path d="M527.784 384.757v.004l.001.104v.001c0 2.24-1.832 4.073-4.07 4.073h-51.368c-4.309 0-4.905-3.465-3.715-8.283 1.9-7.677 8.869-13.415 17.113-13.415h24.416c9.659 0 17.565 7.872 17.623 17.516" class="D"/><path d="M482.165 369.897l.002.002c.224.223.224.588 0 .812l-1.527 1.526c-.223.225-.589.225-.813 0h-.001a.58.58 0 0 1 0-.813l1.527-1.527c.223-.223.59-.223.812 0m6.683 0v.002c.224.223.224.588 0 .812l-1.527 1.526c-.223.225-.589.225-.813 0s-.224-.589 0-.813l1.525-1.527a.58.58 0 0 1 .815 0m6.681 0v.002c.223.223.223.588 0 .812l-1.526 1.526c-.224.225-.59.225-.813 0h-.001c-.224-.223-.224-.589 0-.813l1.527-1.527a.58.58 0 0 1 .813 0m6.68 0l.001.002c.224.223.224.588 0 .812l-1.526 1.526c-.224.225-.589.225-.813 0h-.002a.58.58 0 0 1 0-.813l1.528-1.527c.223-.223.589-.223.812 0m6.681 0l.002.002a.58.58 0 0 1 0 .812l-1.528 1.526c-.222.225-.588.225-.812 0h-.001c-.224-.223-.224-.589 0-.813l1.526-1.527a.58.58 0 0 1 .813 0m6.682 0v.002c.224.223.224.588 0 .812l-1.526 1.526c-.224.225-.59.225-.813 0s-.224-.589 0-.813l1.525-1.527a.58.58 0 0 1 .814 0m1.559 5.32h-.002c-.224.225-.224.59 0 .813l1.526 1.526c.224.224.59.224.814 0s.225-.59 0-.814l-1.525-1.525c-.224-.225-.589-.225-.813 0m-6.683 0h0a.58.58 0 0 0 0 .813l1.526 1.526c.224.224.589.224.814 0s.224-.59 0-.814l-1.525-1.525c-.226-.225-.59-.225-.815 0m-6.68 0h0c-.226.225-.226.59 0 .813l1.525 1.526a.58.58 0 0 0 .815 0 .58.58 0 0 0 0-.814l-1.528-1.525c-.223-.225-.589-.225-.812 0m-6.681 0h-.001c-.224.225-.224.59 0 .813l1.527 1.526c.222.224.588.224.812 0s.225-.59 0-.814l-1.525-1.525c-.224-.225-.589-.225-.813 0m-6.681 0h-.001c-.224.225-.224.59 0 .813l1.525 1.526c.225.224.591.224.814 0s.225-.59 0-.814l-1.525-1.525c-.224-.225-.589-.225-.813 0m-6.681 0h-.001c-.224.225-.224.59 0 .813l1.525 1.526a.58.58 0 0 0 .815 0 .58.58 0 0 0 0-.814l-1.526-1.525c-.225-.225-.59-.225-.813 0" class="E"/><path d="M450.999 257.232h61.615a7.66 7.66 0 0 0 7.637-7.637v-84.084a7.66 7.66 0 0 0-7.637-7.637h-61.615a7.66 7.66 0 0 0-7.635 7.637v84.084a7.66 7.66 0 0 0 7.635 7.637" class="C"/><path d="M451.635 165.385h60.343a1.4 1.4 0 0 1 1.399 1.399v.001a1.4 1.4 0 0 1-1.399 1.4h-60.343a1.4 1.4 0 0 1-1.399-1.4v-.001a1.4 1.4 0 0 1 1.399-1.399m0 8.784h60.343a1.4 1.4 0 0 1 1.399 1.399v.002c0 .771-.628 1.4-1.399 1.4h-60.343c-.771 0-1.399-.629-1.399-1.4v-.002a1.4 1.4 0 0 1 1.399-1.399m48.948 9.674h11.395c.771 0 1.399.629 1.399 1.401v.001a1.4 1.4 0 0 1-1.399 1.399h-11.395a1.4 1.4 0 0 1-1.399-1.399v-.001c0-.772.628-1.401 1.399-1.401m0 9.93h11.395a1.4 1.4 0 0 1 1.399 1.4v.001a1.4 1.4 0 0 1-1.399 1.399h-11.395a1.4 1.4 0 0 1-1.399-1.399v-.001a1.4 1.4 0 0 1 1.399-1.4m0 9.929h11.395a1.4 1.4 0 0 1 1.399 1.399v.003a1.4 1.4 0 0 1-1.399 1.399h-11.395a1.4 1.4 0 0 1-1.399-1.399v-.003a1.4 1.4 0 0 1 1.399-1.399m0 9.929h11.395c.771 0 1.399.629 1.399 1.4v.001c0 .771-.628 1.4-1.399 1.4h-11.395c-.771 0-1.399-.629-1.399-1.4v-.001c0-.771.628-1.4 1.399-1.4m0 9.93h11.395c.771 0 1.399.63 1.399 1.399v.001a1.4 1.4 0 0 1-1.399 1.4h-11.395a1.4 1.4 0 0 1-1.399-1.4v-.001c0-.769.628-1.399 1.399-1.399m0 9.928h11.395c.771 0 1.399.63 1.399 1.4v.002c0 .77-.628 1.4-1.399 1.4h-11.395c-.771 0-1.399-.63-1.399-1.4v-.002c0-.77.628-1.4 1.399-1.4m-17.504 9.93h28.902c.769 0 1.399.629 1.399 1.401s-.63 1.4-1.399 1.4h-28.902c-.771 0-1.399-.629-1.399-1.4s.628-1.401 1.399-1.401m2.864-9.93h8.53c.771 0 1.4.63 1.4 1.4v.002c0 .77-.629 1.4-1.4 1.4h-8.53c-.771 0-1.4-.63-1.4-1.4v-.002c0-.77.629-1.4 1.4-1.4m3.819-9.928h4.299c.769 0 1.399.63 1.399 1.399v.001c0 .772-.63 1.4-1.399 1.4h-4.299c-.77 0-1.399-.628-1.399-1.4v-.001c0-.769.629-1.399 1.399-1.399m2.996-9.93h3.147c.771 0 1.4.629 1.4 1.4v.001c0 .771-.629 1.4-1.4 1.4h-3.147c-.771 0-1.399-.629-1.399-1.4v-.001c0-.771.628-1.4 1.399-1.4" class="I"/><g class="B"><path d="M450.236 192.938h5.41v50.578c0 1.487-1.218 2.704-2.705 2.704h-.001c-1.488 0-2.704-1.217-2.704-2.704v-50.578"/><path d="M455.646 217.371v26.145c0 1.487-1.218 2.704-2.705 2.704h-.001c-1.488 0-2.704-1.217-2.704-2.704v-26.145a1.22 1.22 0 0 0 1.217 1.218h2.974c.67 0 1.219-1.887 1.219-1.218"/></g><path d="M452.365 182.643c-.153.321-2.129 8.418-2.129 10.295.882 2.145 4.392 1.571 5.41 0 0-1.877-1.978-9.974-2.129-10.295-.236-.494-.917-.494-1.152 0" class="F"/><path d="M452.365 182.643c-.047.099-.27.946-.554 2.122a2.67 2.67 0 0 0 1.129.25h.001a2.67 2.67 0 0 0 1.129-.25l-.553-2.122c-.236-.494-.917-.494-1.152 0" class="G"/><path d="M454.427 240.695h-2.974a1.22 1.22 0 0 1-1.217-1.216v2.568a1.22 1.22 0 0 0 1.217 1.218h2.974c.67 0 1.219-.548 1.219-1.218v-2.568a1.22 1.22 0 0 1-1.219 1.216" class="F"/><path d="M480.807 186.566a11.99 11.99 0 0 1 2.679 1.14c.854.494 1.643 1.091 2.349 1.771.138.133.343.152.5.06l3.176-1.833.018-.01c.182-.099.388-.117.579-.065a.78.78 0 0 1 .478.364l.014.021 2.234 3.87a.79.79 0 0 1 .075.599.78.78 0 0 1-.365.477l-.021.014-3.15 1.818c-.166.095-.241.286-.197.463l-.002.001c.117.467.206.95.267 1.443.058.48.088.972.088 1.472a12.32 12.32 0 0 1-.088 1.473 12.09 12.09 0 0 1-.267 1.443.42.42 0 0 0 .222.476l3.149 1.818-.001.002a.78.78 0 0 1 .365.477.79.79 0 0 1-.075.599l-2.248 3.89a.79.79 0 0 1-.478.365c-.197.053-.411.031-.597-.076l-.023-.013-3.154-1.821a.42.42 0 0 0-.499.061c-.706.681-1.495 1.277-2.349 1.771a11.92 11.92 0 0 1-2.697 1.146c-.184.052-.304.221-.305.404v3.663c0 .215-.088.411-.231.555a.78.78 0 0 1-.555.231h-4.495c-.215 0-.411-.089-.554-.231s-.232-.34-.232-.555v-3.663a.42.42 0 0 0-.322-.409c-.947-.273-1.845-.659-2.679-1.14-.854-.495-1.643-1.091-2.35-1.772-.143-.138-.362-.154-.521-.047l-3.154 1.82a.78.78 0 0 1-.597.076c-.195-.053-.371-.179-.478-.365l-.014-.022-2.234-3.87v-.001a.78.78 0 0 1-.076-.596.77.77 0 0 1 .364-.477l3.172-1.833a.42.42 0 0 0 .198-.463 12.5 12.5 0 0 1-.265-1.443c-.058-.482-.089-.972-.089-1.473a12.29 12.29 0 0 1 .089-1.473c.061-.492.15-.975.265-1.442a.42.42 0 0 0-.22-.477l-3.15-1.819c-.187-.106-.312-.283-.364-.477s-.032-.411.076-.597l.013-.024 2.234-3.87.001.001c.107-.187.283-.313.478-.364a.79.79 0 0 1 .597.074v.001l3.174 1.833c.171.099.38.065.51-.069a12.26 12.26 0 0 1 2.341-1.762c.839-.485 1.742-.872 2.697-1.145a.42.42 0 0 0 .304-.404v-3.663c0-.215.089-.413.232-.555a.78.78 0 0 1 .554-.231h4.495a.78.78 0 0 1 .786.786v3.663a.42.42 0 0 0 .323.409zm1.476 6.773c-1.237-1.237-2.946-2.002-4.833-2.002a6.81 6.81 0 0 0-6.833 6.834c0 1.887.765 3.595 2.001 4.832a6.82 6.82 0 0 0 4.832 2.002c1.887 0 3.596-.766 4.833-2.002a6.81 6.81 0 0 0 0-9.664zm-10.921 28.758a7.39 7.39 0 0 1 1.656.705c.529.306 1.017.675 1.454 1.096.085.082.212.093.308.037l1.965-1.134.012-.007a.49.49 0 0 1 .357-.041.48.48 0 0 1 .296.227l.008.013 1.382 2.392a.5.5 0 0 1 .048.371c-.033.12-.111.23-.227.295l-.013.009-1.948 1.125c-.101.058-.149.177-.123.286a7.59 7.59 0 0 1 .164.892c.037.298.056.602.056.912a7.39 7.39 0 0 1-.056.911 7.63 7.63 0 0 1-.164.892c-.03.12.03.242.136.294l1.948 1.125a.49.49 0 0 1 .227.296c.031.121.018.255-.048.37l-1.39 2.407a.48.48 0 0 1-.296.225c-.121.033-.253.02-.369-.048l-.014-.007-1.951-1.127a.26.26 0 0 0-.308.039 7.53 7.53 0 0 1-1.454 1.095 7.39 7.39 0 0 1-1.666.708c-.115.033-.191.137-.191.249v2.267c0 .134-.054.255-.142.343s-.21.143-.343.143h-2.779c-.135 0-.256-.055-.344-.143a.48.48 0 0 1-.144-.343v-2.267a.26.26 0 0 0-.199-.252c-.586-.169-1.141-.407-1.657-.705-.528-.305-1.016-.675-1.453-1.095a.26.26 0 0 0-.321-.03l-1.953 1.126c-.115.067-.247.08-.368.047a.49.49 0 0 1-.296-.225l-.008-.013-1.383-2.396h.002c-.068-.114-.08-.247-.048-.368a.49.49 0 0 1 .224-.296l1.962-1.133c.103-.058.151-.177.123-.286-.072-.29-.127-.588-.164-.892-.036-.298-.054-.602-.054-.911a7.6 7.6 0 0 1 .054-.912 7.39 7.39 0 0 1 .164-.892c.031-.121-.03-.242-.136-.295l-1.949-1.125c-.114-.065-.191-.174-.224-.295a.48.48 0 0 1 .048-.37l.007-.013 1.382-2.395v.002c.068-.117.175-.194.296-.227a.49.49 0 0 1 .368.046v.002l1.964 1.134c.106.06.236.04.317-.043a7.45 7.45 0 0 1 1.446-1.09 7.43 7.43 0 0 1 1.668-.709.26.26 0 0 0 .188-.25v-2.265a.48.48 0 0 1 .488-.486h2.779a.48.48 0 0 1 .343.143c.088.087.142.21.142.343v2.265c0 .123.086.226.201.254zm.913 4.188a4.22 4.22 0 0 0-2.989-1.238c-1.167 0-2.223.474-2.988 1.238a4.21 4.21 0 0 0 0 5.978c.765.766 1.821 1.238 2.988 1.238a4.21 4.21 0 0 0 4.226-4.226c0-1.168-.472-2.225-1.237-2.99zm-308.348-81.199h23.33c1.516 0 2.756 1.24 2.756 2.758v23.33c0 1.517-1.24 2.757-2.756 2.757h-23.33c-1.517 0-2.757-1.24-2.757-2.757v-23.33c0-1.518 1.24-2.758 2.757-2.758m0 38.6h23.33c1.516 0 2.756 1.24 2.756 2.758v23.329c0 1.518-1.24 2.758-2.756 2.758h-23.33c-1.517 0-2.757-1.24-2.757-2.758v-23.329c0-1.518 1.24-2.758 2.757-2.758" class="B"/><path d="M183.59 142.684h-23.33c-.513 0-.98.211-1.32.55a1.85 1.85 0 0 0-.55 1.32v23.329c0 .496.195.948.511 1.281l.039.038c.34.339.807.55 1.32.55h23.33c.513 0 .981-.211 1.318-.55a1.86 1.86 0 0 0 .55-1.319v-23.329a1.86 1.86 0 0 0-.509-1.282l-.041-.038c-.337-.339-.805-.55-1.318-.55zm-23.33-1.778h23.33c1.003 0 1.916.411 2.576 1.072l.051.056c.63.658 1.019 1.546 1.019 2.52v23.329c0 1.003-.411 1.915-1.07 2.576a3.63 3.63 0 0 1-2.576 1.07h-23.33c-1.004 0-1.916-.41-2.576-1.07l-.052-.057c-.63-.658-1.018-1.546-1.018-2.519v-23.329c0-1.002.41-1.913 1.071-2.575a3.63 3.63 0 0 1 2.575-1.073h0zm23.33 40.378h-23.33c-.513 0-.98.211-1.32.55a1.85 1.85 0 0 0-.55 1.319v23.33c0 .497.195.948.511 1.281l.039.038c.34.339.807.55 1.32.55h23.33c.513 0 .981-.211 1.318-.55s.55-.803.55-1.319v-23.33a1.86 1.86 0 0 0-.509-1.281l-.041-.038c-.337-.339-.805-.55-1.318-.55zm-23.33-1.777h23.33c1.003 0 1.916.41 2.576 1.07l.051.057c.63.658 1.019 1.546 1.019 2.519v23.33a3.64 3.64 0 0 1-1.073 2.574 3.62 3.62 0 0 1-2.573 1.071h-23.33a3.63 3.63 0 0 1-2.576-1.07l-.052-.056c-.63-.658-1.018-1.546-1.018-2.519v-23.33a3.64 3.64 0 0 1 1.071-2.574c.659-.662 1.571-1.072 2.575-1.072h0z" class="C"/><path d="M163.53 188.732a1.55 1.55 0 0 1-.021-2.188 1.55 1.55 0 0 1 2.189-.021l6.208 6.107 6.105-6.206a1.55 1.55 0 0 1 2.189-.021 1.55 1.55 0 0 1 .019 2.189l-6.105 6.208 6.206 6.104a1.55 1.55 0 0 1 .02 2.189c-.598.61-1.579.62-2.188.021l-6.21-6.107-6.104 6.207a1.55 1.55 0 0 1-2.189.019 1.55 1.55 0 0 1-.02-2.189l6.107-6.208-6.206-6.104" class="D"/><path d="M164.403 157.929a1.55 1.55 0 0 1-.041-2.191 1.55 1.55 0 0 1 2.189-.041l3.244 3.118 7.411-8.451c.564-.644 1.542-.709 2.184-.146a1.55 1.55 0 0 1 .146 2.184l-8.53 9.726a1.55 1.55 0 0 1-2.191.043l-4.412-4.242" class="K"/><g class="C"><use xlink:href="#B"/><use xlink:href="#B" x="-16.924"/><path d="M93.579 130.592h-4.882a2.14 2.14 0 0 1-2.133-2.134v-4.88a2.14 2.14 0 0 1 2.133-2.133h4.882a2.14 2.14 0 0 1 2.134 2.133v4.88a2.14 2.14 0 0 1-2.134 2.134m-16.924 0h-4.88a2.14 2.14 0 0 1-2.137-2.134v-4.88a2.14 2.14 0 0 1 2.137-2.133h4.88a2.14 2.14 0 0 1 2.133 2.133v4.88a2.14 2.14 0 0 1-2.133 2.134"/><use xlink:href="#B" x="-67.697"/><path d="M42.804 130.592h-4.88a2.14 2.14 0 0 1-2.133-2.134v-4.88a2.14 2.14 0 0 1 2.133-2.133h4.88a2.14 2.14 0 0 1 2.134 2.133v4.88a2.14 2.14 0 0 1-2.134 2.134m50.162-18.451h-4.882a2.14 2.14 0 0 1-2.134-2.135v-4.88a2.14 2.14 0 0 1 2.134-2.134h4.882a2.14 2.14 0 0 1 2.133 2.134v4.88a2.14 2.14 0 0 1-2.133 2.135"/><use xlink:href="#C"/><use xlink:href="#C" x="-16.924"/><path d="M76.655 150.413h-4.88a2.14 2.14 0 0 1-2.135-2.134v-4.88a2.14 2.14 0 0 1 2.135-2.134h4.88a2.14 2.14 0 0 1 2.133 2.134v4.88a2.14 2.14 0 0 1-2.133 2.134m-16.926 0h-4.88a2.14 2.14 0 0 1-2.134-2.134v-4.88a2.14 2.14 0 0 1 2.134-2.134h4.88a2.14 2.14 0 0 1 2.134 2.134v4.88a2.14 2.14 0 0 1-2.134 2.134m366.757-55.926h-4.88a2.14 2.14 0 0 1-2.134-2.134v-4.88a2.14 2.14 0 0 1 2.134-2.134h4.88a2.14 2.14 0 0 1 2.133 2.134v4.88a2.14 2.14 0 0 1-2.133 2.134m-16.924 0h-4.881a2.14 2.14 0 0 1-2.134-2.134v-4.88a2.14 2.14 0 0 1 2.134-2.134h4.881a2.14 2.14 0 0 1 2.134 2.134v4.88a2.14 2.14 0 0 1-2.134 2.134"/><path d="M392.637 94.487h-4.88a2.14 2.14 0 0 1-2.135-2.134v-4.88a2.14 2.14 0 0 1 2.135-2.134h4.88a2.14 2.14 0 0 1 2.135 2.134v4.88a2.14 2.14 0 0 1-2.135 2.134"/><use xlink:href="#D"/><path d="M358.788 94.487h-4.88a2.14 2.14 0 0 1-2.135-2.134v-4.88a2.14 2.14 0 0 1 2.135-2.134h4.88a2.14 2.14 0 0 1 2.134 2.134v4.88a2.14 2.14 0 0 1-2.134 2.134m50.159-18.451h-4.879a2.14 2.14 0 0 1-2.134-2.135v-4.88a2.14 2.14 0 0 1 2.134-2.134h4.879a2.14 2.14 0 0 1 2.135 2.134v4.88a2.14 2.14 0 0 1-2.135 2.135"/><path d="M392.025 76.036h-4.881a2.14 2.14 0 0 1-2.134-2.135v-4.88a2.14 2.14 0 0 1 2.134-2.134h4.881a2.14 2.14 0 0 1 2.133 2.134v4.88a2.14 2.14 0 0 1-2.133 2.135m-16.924 0h-4.88a2.14 2.14 0 0 1-2.136-2.135v-4.88a2.14 2.14 0 0 1 2.136-2.134h4.88a2.14 2.14 0 0 1 2.134 2.134v4.88a2.14 2.14 0 0 1-2.134 2.135m17.536 38.272h-4.88a2.14 2.14 0 0 1-2.134-2.134v-4.88a2.14 2.14 0 0 1 2.134-2.134h4.88a2.14 2.14 0 0 1 2.135 2.134v4.88a2.14 2.14 0 0 1-2.135 2.134"/><use xlink:href="#D" y="19.821"/></g><path d="M97.435 44.493a1.33 1.33 0 0 1 1.877 0c.518.517.518 1.359 0 1.876l-4.22 4.219a1.33 1.33 0 0 1-1.877 0c-.518-.518-.518-1.357 0-1.875l4.22-4.22zm4.845 9.042a1.33 1.33 0 0 1 1.327 1.327 1.33 1.33 0 0 1-1.327 1.326h-5.967c-.733 0-1.327-.594-1.327-1.326a1.33 1.33 0 0 1 1.327-1.327h5.967zm-2.968 9.82c.518.518.518 1.359 0 1.876a1.33 1.33 0 0 1-1.877 0l-4.22-4.219a1.33 1.33 0 0 1 0-1.877 1.33 1.33 0 0 1 1.877 0l4.22 4.22zm-9.042 4.844a1.33 1.33 0 0 1-1.327 1.328 1.33 1.33 0 0 1-1.327-1.328v-5.966c0-.734.594-1.328 1.327-1.328a1.33 1.33 0 0 1 1.327 1.328v5.966zm-9.821-2.968c-.517.519-1.358.519-1.876 0s-.518-1.358 0-1.876l4.22-4.22a1.33 1.33 0 0 1 1.877 0 1.33 1.33 0 0 1 0 1.877l-4.221 4.219zm-4.844-9.043a1.33 1.33 0 0 1-1.327-1.326 1.33 1.33 0 0 1 1.327-1.327h5.967a1.33 1.33 0 0 1 1.328 1.327 1.33 1.33 0 0 1-1.328 1.326h-5.967zm2.968-9.819c-.518-.517-.518-1.359 0-1.876a1.33 1.33 0 0 1 1.876 0l4.221 4.22c.518.518.518 1.357 0 1.875a1.33 1.33 0 0 1-1.877 0l-4.22-4.219zm9.043-4.844c0-.733.594-1.327 1.327-1.327a1.33 1.33 0 0 1 1.327 1.327v5.967a1.33 1.33 0 0 1-1.327 1.326c-.733 0-1.327-.594-1.327-1.326v-5.967h0zm57.96 281.279c.518-.518 1.358-.518 1.876 0s.519 1.359 0 1.877l-4.219 4.221a1.33 1.33 0 0 1-1.877 0 1.33 1.33 0 0 1 0-1.877l4.22-4.221zm4.845 9.044c.732 0 1.325.594 1.325 1.326s-.593 1.327-1.325 1.327h-5.968a1.33 1.33 0 0 1-1.327-1.327c0-.732.594-1.326 1.327-1.326h5.968zm-2.969 9.818c.519.519.519 1.36 0 1.876s-1.358.52-1.876 0l-4.22-4.219a1.33 1.33 0 0 1 0-1.877 1.33 1.33 0 0 1 1.877 0l4.219 4.22zm-9.043 4.845c0 .732-.593 1.327-1.326 1.327a1.33 1.33 0 0 1-1.327-1.327v-5.967a1.33 1.33 0 0 1 1.327-1.327c.733 0 1.326.595 1.326 1.327v5.967zm-9.818-2.969c-.519.52-1.359.52-1.877 0s-.518-1.357 0-1.876l4.22-4.22a1.33 1.33 0 0 1 1.875 0 1.33 1.33 0 0 1 0 1.877l-4.218 4.219zm-4.846-9.041a1.33 1.33 0 0 1-1.326-1.327c0-.732.594-1.326 1.326-1.326h5.968c.733 0 1.326.594 1.326 1.326a1.33 1.33 0 0 1-1.326 1.327h-5.968zm2.969-9.82a1.33 1.33 0 0 1 0-1.877 1.33 1.33 0 0 1 1.877 0l4.218 4.221a1.33 1.33 0 0 1 0 1.877 1.33 1.33 0 0 1-1.875 0l-4.22-4.221zm9.042-4.844a1.33 1.33 0 0 1 1.327-1.328c.733 0 1.326.595 1.326 1.328v5.967c0 .732-.593 1.326-1.326 1.326a1.33 1.33 0 0 1-1.327-1.326v-5.967h0zm422.022-167.028a1.33 1.33 0 0 1 1.877 0 1.33 1.33 0 0 1 0 1.877l-4.22 4.218c-.518.519-1.358.519-1.877 0a1.33 1.33 0 0 1 0-1.875l4.22-4.22zm4.844 9.042c.734 0 1.327.594 1.327 1.327a1.33 1.33 0 0 1-1.327 1.327h-5.967a1.33 1.33 0 0 1-1.326-1.327c0-.733.594-1.327 1.326-1.327h5.967zm-2.967 9.819a1.33 1.33 0 0 1 0 1.877 1.33 1.33 0 0 1-1.877 0l-4.22-4.22a1.33 1.33 0 0 1 0-1.876 1.33 1.33 0 0 1 1.877 0l4.22 4.219zm-9.042 4.846c0 .732-.596 1.325-1.328 1.325s-1.326-.593-1.326-1.325v-5.968a1.33 1.33 0 0 1 1.326-1.327 1.33 1.33 0 0 1 1.328 1.327v5.968zm-9.821-2.969c-.517.518-1.358.518-1.875 0a1.33 1.33 0 0 1 0-1.877l4.219-4.219a1.33 1.33 0 0 1 1.877 0 1.33 1.33 0 0 1 0 1.876l-4.221 4.22zm-4.845-9.042a1.33 1.33 0 0 1-1.327-1.327 1.33 1.33 0 0 1 1.327-1.327h5.968a1.33 1.33 0 0 1 1.327 1.327 1.33 1.33 0 0 1-1.327 1.327h-5.968zm2.97-9.819a1.33 1.33 0 0 1 0-1.877c.517-.518 1.358-.518 1.875 0l4.221 4.22a1.33 1.33 0 0 1 0 1.875c-.519.519-1.359.519-1.877 0l-4.219-4.218zm9.042-4.846c0-.732.594-1.326 1.326-1.326a1.33 1.33 0 0 1 1.328 1.326v5.967a1.33 1.33 0 0 1-1.328 1.327c-.732 0-1.326-.593-1.326-1.327v-5.967h0zM35.401 251.157v2.152h2.152a1.64 1.64 0 0 1 1.634 1.634 1.64 1.64 0 0 1-1.634 1.633h-2.152v2.152a1.64 1.64 0 0 1-1.633 1.634 1.64 1.64 0 0 1-1.633-1.634v-2.152h-2.152a1.64 1.64 0 0 1-1.635-1.633 1.64 1.64 0 0 1 1.635-1.634h2.152v-2.152c0-.898.734-1.632 1.633-1.632s1.633.734 1.633 1.632m180.527-78.227v2.151h2.152a1.64 1.64 0 0 1 1.633 1.633 1.64 1.64 0 0 1-1.633 1.634h-2.152v2.153a1.64 1.64 0 0 1-1.633 1.633 1.64 1.64 0 0 1-1.634-1.633v-2.153h-2.152a1.64 1.64 0 0 1-1.634-1.634 1.64 1.64 0 0 1 1.634-1.633h2.152v-2.151a1.64 1.64 0 0 1 1.634-1.634 1.64 1.64 0 0 1 1.633 1.634m25.391-149.208v2.425h2.424c1.013 0 1.842.827 1.842 1.841s-.829 1.84-1.842 1.84h-2.424v2.426a1.85 1.85 0 0 1-1.841 1.841 1.85 1.85 0 0 1-1.842-1.841v-2.426h-2.425c-1.012 0-1.841-.827-1.841-1.84s.829-1.841 1.841-1.841h2.425v-2.425c0-1.013.828-1.841 1.842-1.841s1.841.828 1.841 1.841M555.736 249.38v2.425h2.423a1.85 1.85 0 0 1 1.842 1.842 1.85 1.85 0 0 1-1.842 1.84h-2.423v2.424a1.85 1.85 0 0 1-1.841 1.842 1.85 1.85 0 0 1-1.842-1.842v-2.424h-2.425c-1.013 0-1.84-.829-1.84-1.84a1.85 1.85 0 0 1 1.84-1.842h2.425v-2.425c0-1.013.829-1.841 1.842-1.841s1.841.828 1.841 1.841m-64.688 78.229v2.423h2.424a1.85 1.85 0 0 1 1.841 1.841c0 1.013-.828 1.842-1.841 1.842h-2.424v2.425c0 1.013-.829 1.841-1.842 1.841s-1.841-.828-1.841-1.841v-2.425h-2.425c-1.013 0-1.841-.829-1.841-1.842a1.85 1.85 0 0 1 1.841-1.841h2.425v-2.423c0-1.013.828-1.842 1.841-1.842a1.85 1.85 0 0 1 1.842 1.842" class="B"/></g><defs ><path id="B" d="M127.426 130.592h-4.88a2.14 2.14 0 0 1-2.134-2.134v-4.88a2.14 2.14 0 0 1 2.134-2.133h4.88a2.14 2.14 0 0 1 2.134 2.133v4.88a2.14 2.14 0 0 1-2.134 2.134"/><path id="C" d="M76.041 112.141h-4.88a2.14 2.14 0 0 1-2.134-2.135v-4.88a2.14 2.14 0 0 1 2.134-2.134h4.88a2.14 2.14 0 0 1 2.134 2.134v4.88a2.14 2.14 0 0 1-2.134 2.135"/><path id="D" d="M375.711 94.487h-4.88a2.14 2.14 0 0 1-2.134-2.134v-4.88a2.14 2.14 0 0 1 2.134-2.134h4.88a2.14 2.14 0 0 1 2.136 2.134v4.88a2.14 2.14 0 0 1-2.136 2.134"/></defs></svg>